# xmcd
#
# Track frame offsets:
#	150
#	23277
#	40597
#	65225
#	88552
#	108977
#
# Disc length: 1770 seconds
#
# Revision: 4
# Processed by: cddbd v1.5.2PL0 Copyright (c) Steve Scherf et al.
# Submitted via: audiograbber 1.83.01
#
DISCID=3e06e806
DTITLE=Auger, York Farlowe - Olympic Rock and Blues Circus
DYEAR=1996
DGENRE=Blues
TTITLE0=New Orleans Street March
TTITLE1=I Never Loved a Girl (The Way That I Love You)
TTITLE2=Motorboat
TTITLE3=The Devil Rides the Speed Boat
TTITLE4=Everyrhing's Wrong
TTITLE5=Crocodile or: I Don't Think I Can Keep My Mouth Open for That Long
EXTD=
EXTT0=
EXTT1=
EXTT2=
EXTT3=
EXTT4=
EXTT5=
PLAYORDER=
